<svg width="475" height="280" viewBox="0 0 475 280" fill="none" xmlns="http://www.w3.org/2000/svg">
<rect width="475" height="280" fill="black"/>
<g clip-path="url(#clip0_2238_35)">
<path d="M117.476 173C114.336 173 111.525 172.26 109.047 170.783C106.569 169.306 104.616 167.294 103.19 164.75C101.765 162.206 101.052 159.313 101.052 156.068C101.052 152.824 101.765 149.935 103.19 147.391C104.616 144.847 106.569 142.835 109.047 141.358C111.525 139.881 114.336 139.141 117.476 139.141C120.41 139.141 123.094 139.676 125.533 140.74C127.971 141.807 129.87 143.284 131.234 145.17L126.401 150.955C125.822 150.176 125.099 149.468 124.23 148.832C123.362 148.196 122.422 147.693 121.412 147.323C120.399 146.952 119.357 146.769 118.283 146.769C116.59 146.769 115.092 147.168 113.79 147.969C112.487 148.771 111.467 149.867 110.722 151.264C109.977 152.658 109.608 154.261 109.608 156.065C109.608 157.869 109.988 159.349 110.755 160.743C111.518 162.137 112.56 163.248 113.884 164.067C115.204 164.89 116.695 165.3 118.344 165.3C119.419 165.3 120.432 165.156 121.38 164.868C122.331 164.581 123.228 164.128 124.075 163.514C124.921 162.899 125.695 162.159 126.397 161.297L131.169 167.082C129.805 168.846 127.873 170.273 125.373 171.362C122.874 172.447 120.24 172.993 117.473 172.993L117.476 173Z" fill="white"/>
<path d="M150.509 173C147.162 173 144.178 172.271 141.555 170.815C138.932 169.36 136.867 167.359 135.358 164.814C133.85 162.27 133.097 159.356 133.097 156.072C133.097 152.788 133.85 149.877 135.358 147.33C136.867 144.786 138.932 142.784 141.555 141.329C144.178 139.874 147.162 139.144 150.509 139.144C153.855 139.144 156.778 139.874 159.401 141.329C162.023 142.788 164.078 144.786 165.565 147.33C167.052 149.874 167.797 152.788 167.797 156.072C167.797 159.356 167.052 162.27 165.565 164.814C164.078 167.359 162.023 169.36 159.401 170.815C156.778 172.271 153.811 173 150.509 173ZM150.509 165.368C152.118 165.368 153.566 164.969 154.846 164.168C156.127 163.366 157.129 162.26 157.852 160.844C158.576 159.428 158.916 157.836 158.876 156.072C158.916 154.268 158.576 152.655 157.852 151.239C157.129 149.823 156.127 148.717 154.846 147.915C153.566 147.114 152.118 146.715 150.509 146.715C148.899 146.715 147.39 147.125 146.11 147.948C144.829 148.771 143.816 149.877 143.075 151.272C142.329 152.666 141.978 154.268 142.022 156.072C141.978 157.836 142.333 159.428 143.075 160.844C143.82 162.26 144.829 163.366 146.11 164.168C147.39 164.969 148.855 165.368 150.509 165.368Z" fill="white"/>
<path d="M187.195 173C184.055 173 181.244 172.26 178.766 170.783C176.288 169.306 174.334 167.294 172.909 164.75C171.484 162.206 170.771 159.313 170.771 156.068C170.771 152.824 171.484 149.935 172.909 147.391C174.334 144.847 176.288 142.835 178.766 141.358C181.244 139.881 184.055 139.141 187.195 139.141C190.129 139.141 192.813 139.676 195.251 140.74C197.689 141.807 199.589 143.284 200.953 145.17L196.119 150.955C195.541 150.176 194.817 149.468 193.949 148.832C193.081 148.196 192.14 147.693 191.131 147.323C190.118 146.952 189.076 146.769 188.002 146.769C186.308 146.769 184.811 147.168 183.509 147.969C182.206 148.771 181.186 149.867 180.441 151.264C179.696 152.658 179.327 154.261 179.327 156.065C179.327 157.869 179.706 159.349 180.473 160.743C181.237 162.137 182.278 163.248 183.602 164.067C184.923 164.89 186.413 165.3 188.063 165.3C189.138 165.3 190.15 165.156 191.098 164.868C192.05 164.581 192.947 164.128 193.793 163.514C194.64 162.899 195.414 162.159 196.116 161.297L200.887 167.082C199.524 168.846 197.592 170.273 195.092 171.362C192.592 172.447 189.959 172.993 187.191 172.993L187.195 173Z" fill="white"/>
<path d="M204.983 172.386V126.834H213.658V146.471L211.921 147.211C212.377 145.734 213.191 144.39 214.37 143.179C215.546 141.969 216.964 140.995 218.614 140.255C220.267 139.514 222 139.148 223.819 139.148C226.298 139.148 228.374 139.64 230.049 140.625C231.724 141.609 232.983 143.097 233.829 145.087C234.676 147.078 235.099 149.529 235.099 152.443V172.386H226.298V153.118C226.298 151.642 226.091 150.409 225.679 149.425C225.266 148.44 224.633 147.721 223.787 147.269C222.94 146.819 221.898 146.611 220.658 146.654C219.666 146.654 218.747 146.809 217.901 147.118C217.055 147.427 216.331 147.865 215.73 148.44C215.13 149.015 214.656 149.672 214.305 150.409C213.954 151.149 213.777 151.947 213.777 152.809V172.386H204.975H204.983Z" fill="white"/>
<path d="M254.251 173C251.523 173 249.067 172.26 246.874 170.783C244.686 169.306 242.949 167.294 241.669 164.75C240.388 162.206 239.748 159.292 239.748 156.007C239.748 152.723 240.399 149.813 241.701 147.265C243.003 144.721 244.769 142.73 247.001 141.293C249.233 139.856 251.773 139.137 254.623 139.137C256.234 139.137 257.713 139.374 259.054 139.845C260.398 140.316 261.574 140.962 262.585 141.785C263.599 142.608 264.456 143.55 265.158 144.617C265.86 145.684 266.356 146.834 266.645 148.063L264.785 147.754V139.813H273.521V172.375H264.659V164.556L266.64 164.373C266.312 165.522 265.773 166.611 265.031 167.635C264.285 168.663 263.367 169.576 262.275 170.373C261.178 171.175 259.952 171.811 258.589 172.281C257.224 172.752 255.778 172.989 254.251 172.989V173ZM256.667 165.429C258.321 165.429 259.768 165.041 261.004 164.261C262.245 163.481 263.205 162.386 263.885 160.966C264.565 159.55 264.908 157.898 264.908 156.011C264.908 154.125 264.568 152.544 263.885 151.149C263.205 149.755 262.242 148.656 261.004 147.854C259.765 147.053 258.317 146.654 256.667 146.654C255.018 146.654 253.639 147.053 252.424 147.854C251.205 148.656 250.242 149.751 249.541 151.149C248.839 152.544 248.488 154.164 248.488 156.011C248.488 157.858 248.839 159.55 249.541 160.966C250.242 162.382 251.205 163.481 252.424 164.261C253.643 165.041 255.057 165.429 256.667 165.429Z" fill="white"/>
<path d="M291.806 173C288.749 173 286.032 172.497 283.655 171.491C281.278 170.485 279.367 169.101 277.922 167.337L283.437 162.659C284.679 164.013 286.082 164.987 287.652 165.583C289.223 166.18 290.792 166.475 292.362 166.475C292.981 166.475 293.549 166.403 294.067 166.259C294.583 166.115 295.028 165.91 295.397 165.645C295.77 165.379 296.048 165.052 296.233 164.66C296.417 164.272 296.512 163.851 296.512 163.399C296.512 162.497 296.139 161.8 295.397 161.304C294.985 161.06 294.345 160.779 293.476 160.474C292.608 160.168 291.494 159.827 290.131 159.457C288.025 158.925 286.235 158.296 284.769 157.578C283.3 156.859 282.136 156.05 281.267 155.145C280.521 154.283 279.953 153.352 279.563 152.346C279.169 151.34 278.973 150.222 278.973 148.99C278.973 147.513 279.303 146.169 279.965 144.958C280.627 143.747 281.546 142.712 282.722 141.85C283.896 140.988 285.25 140.323 286.781 139.849C288.307 139.378 289.92 139.141 291.613 139.141C293.306 139.141 294.96 139.345 296.569 139.755C298.179 140.165 299.676 140.75 301.063 141.509C302.449 142.267 303.656 143.162 304.688 144.186L299.978 149.356C299.233 148.659 298.397 148.023 297.467 147.448C296.538 146.873 295.574 146.424 294.583 146.094C293.593 145.767 292.702 145.601 291.918 145.601C291.216 145.601 290.586 145.662 290.025 145.785C289.467 145.907 289.002 146.104 288.633 146.37C288.26 146.636 287.982 146.956 287.797 147.326C287.613 147.696 287.518 148.106 287.518 148.559C287.518 149.011 287.63 149.442 287.858 149.852C288.085 150.262 288.405 150.61 288.821 150.898C289.273 151.146 289.946 151.433 290.836 151.76C291.722 152.091 292.93 152.457 294.461 152.867C296.444 153.402 298.125 153.995 299.511 154.653C300.896 155.31 302 156.069 302.827 156.931C303.529 157.671 304.047 158.512 304.376 159.453C304.705 160.398 304.872 161.444 304.872 162.594C304.872 164.606 304.304 166.392 303.169 167.948C302.032 169.507 300.472 170.74 298.491 171.642C296.507 172.544 294.276 172.996 291.797 172.996L291.806 173Z" fill="white"/>
<path d="M324.833 173C321.488 173 318.503 172.271 315.88 170.815C313.257 169.36 311.192 167.359 309.683 164.814C308.175 162.27 307.422 159.356 307.422 156.072C307.422 152.788 308.175 149.877 309.683 147.33C311.192 144.786 313.257 142.784 315.88 141.329C318.503 139.874 321.488 139.144 324.833 139.144C328.18 139.144 331.103 139.874 333.726 141.329C336.349 142.788 338.404 144.786 339.893 147.33C341.381 149.874 342.126 152.788 342.126 156.072C342.126 159.356 341.381 162.27 339.893 164.814C338.407 167.359 336.352 169.36 333.726 170.815C331.103 172.271 328.136 173 324.833 173ZM324.833 165.368C326.443 165.368 327.89 164.969 329.172 164.168C330.451 163.366 331.455 162.26 332.178 160.844C332.902 159.428 333.242 157.836 333.202 156.072C333.242 154.268 332.902 152.655 332.178 151.239C331.455 149.823 330.451 148.717 329.172 147.915C327.89 147.114 326.443 146.715 324.833 146.715C323.224 146.715 321.716 147.125 320.435 147.948C319.155 148.771 318.142 149.877 317.4 151.272C316.654 152.666 316.304 154.268 316.348 156.072C316.304 157.836 316.658 159.428 317.4 160.844C318.145 162.26 319.155 163.366 320.435 164.168C321.716 164.969 323.18 165.368 324.833 165.368Z" fill="white"/>
<path d="M343.674 147.642V139.823H364.497V147.642H343.674ZM348.57 172.389V137.549C348.57 135.54 349.025 133.711 349.933 132.069C350.841 130.427 352.092 129.137 353.68 128.192C355.273 127.247 357.139 126.776 359.288 126.776C360.735 126.776 362.095 127.013 363.38 127.484C364.66 127.955 365.757 128.584 366.665 129.363L364.06 135.828C363.521 135.501 362.975 135.224 362.417 134.998C361.861 134.771 361.353 134.66 360.898 134.66C360.112 134.66 359.462 134.793 358.945 135.059C358.427 135.325 358.047 135.716 357.797 136.227C357.548 136.74 357.425 137.387 357.425 138.167V172.393H348.561L348.57 172.389Z" fill="white"/>
<path d="M366.668 147.642V139.823H387.736V147.642H366.668ZM372.181 172.389V131.577H380.983V172.389H372.181Z" fill="white"/>
<path d="M119.332 118.867C119.332 118.867 117.082 121.889 111.424 125.659L107.455 108.544L99.5763 106L104.996 129.389L93.1225 119.065L90.5613 126.895L97.6265 132.561C91.567 134.696 88 134.725 88 134.725L90.6589 139.91C90.6589 139.91 94.5985 141.182 107.654 134.574C120.71 127.966 121.991 124.052 121.991 124.052L119.332 118.867Z" fill="white"/>
</g>
<defs>
<clipPath id="clip0_2238_35">
<rect width="299.825" height="67" fill="white" transform="translate(88 106)"/>
</clipPath>
</defs>
</svg>
